<?xml version="1.0" encoding="UTF-8"?>
<svg id="Layer_1" data-name="Layer 1" xmlns="http://www.w3.org/2000/svg" viewBox="0 0 192.4 244.81">
  <defs>
    <style>
      .cls-1 {
        fill: #ed572b;
      }
    </style>
  </defs>
  <path class="cls-1" d="M192.4,143.35c-6.77,23.93-21.77,43.96-42.23,56.47-11.75,7.17-24.53,11.37-37.47,12.51-.41,5.93-.84,12.02-1.27,18.27-.68,9.66-.43,4.63-.95,14.21l-17.81-.95c.51-9.75.27-4.79.95-14.51,1.27-17.81,2.52-34.03,2.82-49.65-3.47.35-6.96.54-10.42.54-14.62,0-29.02-3.3-42.1-9.8C22.17,159.64,6.61,141.32,0,118.82l17.14-5.01c5.17,17.65,17.49,32.08,34.71,40.63,13.62,6.8,29.05,9.26,44.42,7.28-.49-11.42-1.71-22.74-4.11-34.33-7.55-36.3-25.39-59.99-56.2-74.53l7.63-16.13c29.62,14,49.51,35.9,60.37,66.68,9.01-25.99,12.24-53.41,9.18-79.46l17.73-2.08c4.3,36.63-2.65,75.67-19.63,110.59,3.41,20.76,3.55,40.63,2.52,61.78,9.37-1.19,18.57-4.47,27.1-9.66,16.62-10.15,28.83-26.5,34.38-46.08l17.16,4.85Z"/>
  <path class="cls-1" d="M77.63,0c2.76,0,10.58,5.06,12.87,7.06,9.06,7.91,10.16,17.49,6.22,28.53-4.67,13.08-9.85,12.44-20.27,4.73-11.77-8.72-12.64-25.22-4.08-36.64C73.44,2.24,75.78,0,77.63,0Z"/>
  <path class="cls-1" d="M44.85,94.89c2.7-.56,11.39,2.77,14.05,4.26,10.49,5.88,13.54,15.02,11.96,26.64-1.88,13.76-7.08,14.2-18.86,8.79-13.32-6.11-17.56-22.08-11.53-35.02.76-1.62,2.58-4.3,4.39-4.68Z"/>
  <path class="cls-1" d="M43.23,216.98c-.49-2.7,3.04-11.22,4.59-13.81,6.1-10.25,15.24-13.03,26.72-11.16,13.59,2.22,13.89,7.39,8.23,18.93-6.4,13.04-22.35,16.83-35.01,10.52-1.59-.79-4.2-2.67-4.52-4.47Z"/>
  <path class="cls-1" d="M149.12,129.51c1.94,1.71,4.31,10.09,4.68,12.91,1.48,11.15-3.66,18.56-13.25,23.89-11.36,6.3-14.61,2.66-17.16-9.2-2.88-13.4,6.7-25.53,19.77-28.26,1.64-.34,4.67-.48,5.96.67Z"/>
</svg>