<?xml version="1.0" encoding="UTF-8"?>
<svg id="Layer_1" data-name="Layer 1" xmlns="http://www.w3.org/2000/svg" viewBox="0 0 291.71 122.41">
  <defs>
    <style>
      .cls-2 {
        fill: #333;
      }
    </style>
  </defs>
  <g>
    <path class="cls-2" d="M24.88,48.08h-7.77V9.75h7.77v38.34Z"/>
    <path class="cls-2" d="M57.09,27v21.08h-7.51v-19.65c0-2.27-1.1-3.41-3.3-3.41-1.85,0-4.38.85-7.61,2.56v20.5h-7.51v-29.18h7.03v3.09h.21c4.01-2.48,7.4-3.73,10.17-3.73,5.68,0,8.52,2.91,8.52,8.73Z"/>
    <path class="cls-2" d="M73.06,42.12c2.63,0,4.53-.51,5.7-1.54,1.17-1.03,1.76-2.29,1.76-3.78,0-1.14-.36-2.04-1.06-2.72-.36-.43-.98-.8-1.86-1.12-.75-.35-2.54-.75-5.38-1.17-3.91-.57-6.66-1.76-8.28-3.57-1.62-1.81-2.42-4.33-2.42-7.56,0-7.7,5.02-11.55,15.07-11.55,1.14,0,2.32.05,3.57.16.71.04,2.01.16,3.89.37l2.72.27v6.82c-4.15-.64-7.49-.96-10.01-.96-4.86,0-7.29,1.56-7.29,4.69,0,1.31.53,2.33,1.6,3.03,1.06.71,2.91,1.24,5.54,1.6,3.02.5,5.13,1.01,6.34,1.54,1.31.53,2.38,1.26,3.19,2.18,1.63,1.85,2.45,4.4,2.45,7.67,0,3.94-1.26,6.97-3.78,9.08-2.52,2.11-6.23,3.17-11.13,3.17-3.98,0-7.85-.39-11.61-1.17v-6.82c5.25.92,8.93,1.38,11.02,1.38Z"/>
    <path class="cls-2" d="M116.7,22.18c2.75,2.61,4.13,6.38,4.13,11.31s-1.38,8.71-4.13,11.31c-2.75,2.61-6.33,3.91-10.73,3.91s-7.97-1.29-10.7-3.86c-2.73-2.57-4.1-6.36-4.1-11.37s1.37-8.75,4.1-11.34c2.73-2.59,6.3-3.89,10.7-3.89s7.98,1.3,10.73,3.91ZM113.16,33.49c0-5.86-2.38-8.79-7.13-8.79s-7.19,2.93-7.19,8.79,2.4,8.84,7.19,8.84,7.13-2.95,7.13-8.84Z"/>
    <path class="cls-2" d="M139.41,42.23c2.27,0,4.93-.43,7.99-1.28v6.5c-2.84.85-5.91,1.28-9.21,1.28-1.99,0-3.82-.26-5.48-.77-1.67-.51-3.21-1.33-4.63-2.45s-2.54-2.7-3.35-4.74c-.82-2.04-1.22-4.46-1.22-7.27,0-3.51.64-6.42,1.92-8.73,1.17-2.06,2.85-3.66,5.03-4.79,2.18-1.14,4.77-1.7,7.75-1.7,3.3,0,6.37.43,9.21,1.28v6.55c-2.84-.85-5.5-1.28-7.99-1.28-2.77,0-4.84.69-6.2,2.08-1.37,1.38-2.05,3.59-2.05,6.6,0,2.73.7,4.87,2.1,6.42,1.4,1.54,3.45,2.32,6.15,2.32Z"/>
    <path class="cls-2" d="M151.7,8.31h7.72v7.03h-7.72v-7.03ZM151.81,18.91h7.51v29.18h-7.51v-29.18Z"/>
    <path class="cls-2" d="M174.23,30.3h6.87v-1.92c0-2.63-2.02-3.94-6.07-3.94-1.28,0-2.91.14-4.9.43-2.02.28-3.55.59-4.58.9v-6.28c3.76-.82,7.54-1.22,11.34-1.22s6.62.91,8.68,2.72c2.06,1.81,3.09,4.44,3.09,7.88v19.22h-6.44l-.53-3.04h-.21c-3.27,2.31-6.35,3.46-9.26,3.46s-5.11-.85-6.71-2.56c-1.6-1.7-2.4-3.94-2.4-6.71s.98-4.95,2.93-6.55s4.69-2.4,8.2-2.4ZM181.1,40.26v-5h-5.64c-3.2,0-4.79,1.14-4.79,3.41,0,1.14.36,2.02,1.09,2.66.73.64,1.71.96,2.96.96,2.2,0,4.33-.67,6.39-2.02Z"/>
    <path class="cls-2" d="M18.85,83.8h-2.84v-23h2.84v23Z"/>
    <path class="cls-2" d="M38.11,71.09v12.71h-2.72v-12.24c0-.94-.26-1.66-.77-2.17-.51-.51-1.26-.77-2.24-.77-1.51,0-3.56.74-6.13,2.2v12.97h-2.72v-17.25h2.56v2.11c2.9-1.66,5.25-2.49,7.06-2.49,1.62,0,2.85.42,3.69,1.26.84.84,1.26,2.06,1.26,3.66Z"/>
    <path class="cls-2" d="M47.22,81.82c2.68,0,4.02-.99,4.02-2.97-.08-.94-.39-1.57-.91-1.88-.52-.32-1.61-.6-3.27-.83-2.11-.28-3.55-.79-4.33-1.55-.78-.76-1.21-1.87-1.29-3.34,0-3.39,2.29-5.08,6.87-5.08,1.51,0,3.11.14,4.79.42v2.46c-1.92-.32-3.42-.48-4.5-.48-2.9,0-4.34.85-4.34,2.56,0,.36.05.68.14.94.1.27.27.49.53.67.26.18.46.33.62.43.16.11.46.21.91.30s.74.16.88.18c.14.02.47.06,1.01.13,1.62.23,2.78.53,3.48.89,1.49.75,2.24,2.1,2.24,4.06,0,1.75-.57,3.09-1.71,4.04-1.14.95-2.8,1.42-4.97,1.42-1.66,0-3.61-.12-5.85-.35v-2.52c2.26.34,4.15.51,5.69.51Z"/>
    <path class="cls-2" d="M60.73,62.75v3.8h5.53v2.36h-5.53v10.83c0,.6.19,1.08.56,1.44s.93.54,1.68.54c.81,0,1.69-.15,2.65-.45v2.4c-1.73.32-3.03.48-3.93.48-1.3,0-2.24-.31-2.83-.93-.59-.62-.88-1.57-.88-2.84v-11.47h-2.43v-1.73l.58-.64h1.85v-2.11l1.63-1.69h1.12Z"/>
    <path class="cls-2" d="M68.49,60.42h2.81v3.35h-2.81v-3.35ZM68.56,66.55h2.72v17.25h-2.72v-17.25Z"/>
    <path class="cls-2" d="M79.13,62.75v3.8h5.53v2.36h-5.53v10.83c0,.6.19,1.08.56,1.44s.93.54,1.68.54c.81,0,1.69-.15,2.65-.45v2.4c-1.73.32-3.03.48-3.93.48-1.3,0-2.24-.31-2.83-.93-.59-.62-.88-1.57-.88-2.84v-11.47h-2.43v-1.73l.58-.64h1.85v-2.11l1.63-1.69h1.12Z"/>
    <path class="cls-2" d="M86.83,79.3v-12.75h2.72v12.24c0,.94.26,1.66.77,2.17.51.51,1.26.77,2.24.77,1.62,0,3.66-.72,6.13-2.17v-13h2.72v17.25h-2.27l-.26-2.08c-2.83,1.64-5.19,2.46-7.06,2.46-1.62,0-2.85-.42-3.71-1.25-.85-.83-1.28-2.04-1.28-3.64Z"/>
    <path class="cls-2" d="M109.26,62.75v3.8h5.53v2.36h-5.53v10.83c0,.6.19,1.08.56,1.44.37.36.93.54,1.68.54.81,0,1.69-.15,2.65-.45v2.4c-1.72.32-3.04.48-3.93.48-1.3,0-2.24-.31-2.83-.93s-.88-1.57-.88-2.84v-11.47h-2.43v-1.73l.58-.64h1.85v-2.11l1.63-1.69h1.12Z"/>
    <path class="cls-2" d="M131.05,80.64v2.43c-2.24.75-4.41,1.12-6.52,1.12-2.79,0-4.88-.74-6.28-2.21-1.4-1.47-2.09-3.75-2.09-6.84,0-2.92.68-5.14,2.04-6.68,1.36-1.53,3.33-2.3,5.91-2.3s4.28.69,5.49,2.08,1.82,3.5,1.82,6.36v1.31h-12.46c.02,3.9,2.07,5.85,6.13,5.85,1.87,0,3.85-.37,5.94-1.12ZM118.94,73.87h9.68c0-3.64-1.54-5.46-4.63-5.46-1.34-.08-2.53.36-3.56,1.34-1.03.98-1.53,2.35-1.49,4.12Z"/>
    <path class="cls-2" d="M152,59.39v2.27c-1-.21-1.99-.32-2.97-.32s-1.75.21-2.3.64c-.53.4-.8,1.31-.8,2.71v1.85h5.21v2.36h-5.21v14.89h-2.71v-14.89h-2.14v-2.04l2.14-.35v-2.43c0-1.7.42-2.97,1.25-3.8.83-.83,2.15-1.25,3.96-1.25,1.15,0,2.34.12,3.58.35Z"/>
    <path class="cls-2" d="M152.1,75.18c0-2.64.71-4.8,2.14-6.48s3.55-2.52,6.36-2.52c2.47,0,4.5.74,6.1,2.22,1.6,1.48,2.4,3.74,2.4,6.79,0,2.64-.71,4.8-2.14,6.49-1.43,1.68-3.55,2.52-6.36,2.52-2.47,0-4.5-.74-6.1-2.22-1.6-1.48-2.4-3.74-2.4-6.79ZM166.28,75.18c.06-1.98-.42-3.59-1.45-4.84-1.03-1.25-2.46-1.84-4.27-1.77-1.85,0-3.26.58-4.22,1.72-.96,1.15-1.44,2.78-1.44,4.89-.06,1.98.42,3.6,1.45,4.86s2.46,1.84,4.27,1.76c1.85,0,3.26-.58,4.22-1.72.96-1.15,1.44-2.78,1.44-4.89Z"/>
    <path class="cls-2" d="M182,66.42v2.84c-.89.13-1.77.36-2.62.7-.92.34-2.31,1.01-4.19,2.01v11.82h-2.71v-17.25h2.62v3.1l1.63-1.05c2-1.32,3.76-2.04,5.27-2.17Z"/>
    <path class="cls-2" d="M196.86,81.69c3.77,0,5.65-1.52,5.65-4.57,0-.72-.15-1.33-.45-1.82-.28-.47-.73-.87-1.37-1.21-.64-.34-1.91-.65-3.8-.93-2.56-.38-4.29-1.11-5.21-2.17-.89-1.04-1.34-2.42-1.34-4.12,0-4.28,2.83-6.42,8.5-6.42,1.26,0,3.08.12,5.46.35v2.59c-1.94-.32-3.76-.48-5.46-.48-1.94,0-3.35.32-4.23.94s-1.33,1.61-1.33,2.96c0,.53.1,1.05.29,1.56.23.51.65.96,1.25,1.34.64.36,1.8.68,3.48.96,1.79.3,3.06.6,3.8.89.81.32,1.45.73,1.92,1.25.96.98,1.44,2.4,1.44,4.25,0,2.3-.73,4.06-2.19,5.29s-3.53,1.84-6.21,1.84c-2.09,0-4.23-.19-6.42-.58v-2.62c2.56.47,4.63.7,6.23.7Z"/>
    <path class="cls-2" d="M207.69,75.18c0-2.64.71-4.8,2.14-6.48s3.55-2.52,6.36-2.52c2.47,0,4.5.74,6.1,2.22,1.6,1.48,2.4,3.74,2.4,6.79,0,2.64-.71,4.8-2.14,6.49-1.43,1.68-3.55,2.52-6.36,2.52-2.47,0-4.5-.74-6.1-2.22-1.6-1.48-2.4-3.74-2.4-6.79ZM221.87,75.18c.06-1.98-.42-3.59-1.45-4.84-1.03-1.25-2.46-1.84-4.27-1.77-1.85,0-3.26.58-4.22,1.72-.96,1.15-1.44,2.78-1.44,4.89-.06,1.98.42,3.6,1.45,4.86s2.46,1.84,4.27,1.76c1.85,0,3.26-.58,4.22-1.72.96-1.15,1.44-2.78,1.44-4.89Z"/>
    <path class="cls-2" d="M235.96,81.76c1.55,0,3.25-.29,5.08-.86v2.46c-1.85.55-3.67.83-5.46.83-1.13,0-2.17-.15-3.13-.45-.96-.3-1.85-.78-2.67-1.44-.82-.66-1.47-1.6-1.95-2.81-.48-1.21-.72-2.65-.72-4.31,0-2.85.69-5.04,2.08-6.55,1.58-1.64,3.71-2.46,6.39-2.46,1.85,0,3.67.29,5.46.86v2.46c-1.85-.6-3.55-.89-5.08-.89-1.96,0-3.46.57-4.49,1.69-1.03,1.13-1.55,2.76-1.55,4.89s.54,3.81,1.61,4.92c1.08,1.11,2.55,1.66,4.42,1.66Z"/>
    <path class="cls-2" d="M244.33,60.42h2.81v3.35h-2.81v-3.35ZM244.39,66.55h2.71v17.25h-2.71v-17.25Z"/>
    <path class="cls-2" d="M256.34,73.67h5.14v-1.85c0-2.21-1.37-3.32-4.12-3.32-.72,0-1.68.09-2.88.26-1.28.19-2.23.37-2.84.54v-2.4c.72-.17,1.77-.34,3.13-.51,1.13-.15,2.19-.22,3.19-.22,2,0,3.55.5,4.63,1.49,1.09.99,1.63,2.43,1.63,4.33v11.82h-2.33l-.22-2.17c-2.22,1.56-4.26,2.33-6.13,2.33-1.68,0-3-.46-3.95-1.37-.95-.92-1.42-2.14-1.42-3.67,0-1.66.55-2.95,1.65-3.87,1.1-.92,2.6-1.37,4.52-1.37ZM261.48,79.65v-3.93h-4.86c-1.19,0-2.1.26-2.73.78-.63.52-.94,1.26-.94,2.22s.3,1.67.91,2.2c.61.53,1.43.8,2.48.8.79,0,1.66-.2,2.62-.59.96-.39,1.8-.89,2.52-1.49Z"/>
    <path class="cls-2" d="M268.58,59.43h2.72v24.38h-2.72v-24.38Z"/>
    <path class="cls-2" d="M18.85,114.11h-2.84v-23h2.84v23Z"/>
    <path class="cls-2" d="M44.18,96.47c1.55,0,2.76.43,3.63,1.28.86.85,1.29,2.11,1.29,3.77v12.59h-2.72v-12.24c0-1.94-1.01-2.91-3.03-2.91-1.49,0-3.4.73-5.72,2.2l.03,1.5v11.44h-2.72v-12.24c0-1.94-1-2.91-3-2.91-.64,0-1.36.14-2.17.42-.89.28-2.07.86-3.51,1.76v12.97h-2.72v-17.25h2.56v2.11c2.64-1.66,4.87-2.49,6.68-2.49,2.32,0,3.82.89,4.5,2.68,2.64-1.79,4.94-2.68,6.9-2.68Z"/>
    <path class="cls-2" d="M56.04,113.85v6.8h-2.72v-23.8h2.72v1.98c2.21-1.58,4.35-2.36,6.42-2.36,1.94,0,3.46.76,4.55,2.28,1.1,1.52,1.65,3.63,1.65,6.31,0,6.24-2.72,9.36-8.15,9.36-1.15,0-2.64-.19-4.47-.58ZM65.84,105.23c0-2.09-.37-3.66-1.1-4.73-.73-1.06-1.76-1.6-3.08-1.6-1.68,0-3.56.71-5.62,2.14v10.48c1.75.41,3.15.61,4.22.61,3.73,0,5.59-2.3,5.59-6.9Z"/>
    <path class="cls-2" d="M76.96,103.98h5.14v-1.85c0-2.21-1.37-3.32-4.12-3.32-.72,0-1.68.09-2.88.26-1.28.19-2.23.37-2.84.54v-2.4c.72-.17,1.77-.34,3.13-.51,1.13-.15,2.19-.22,3.19-.22,2,0,3.55.5,4.63,1.49,1.09.99,1.63,2.43,1.63,4.33v11.82h-2.33l-.22-2.17c-2.22,1.56-4.26,2.33-6.13,2.33-1.68,0-3-.46-3.95-1.37-.95-.92-1.42-2.14-1.42-3.67,0-1.66.55-2.95,1.65-3.87,1.1-.92,2.6-1.37,4.52-1.37ZM82.1,109.95v-3.93h-4.86c-1.19,0-2.1.26-2.73.78-.63.52-.94,1.26-.94,2.22s.3,1.67.91,2.2,1.43.8,2.48.8c.79,0,1.66-.2,2.62-.59.96-.39,1.8-.89,2.52-1.49Z"/>
    <path class="cls-2" d="M96.96,112.06c1.55,0,3.25-.29,5.08-.86v2.46c-1.85.55-3.67.83-5.46.83-1.13,0-2.17-.15-3.13-.45-.96-.3-1.85-.78-2.67-1.44-.82-.66-1.47-1.6-1.95-2.81-.48-1.21-.72-2.65-.72-4.31,0-2.85.69-5.04,2.08-6.55,1.58-1.64,3.71-2.46,6.39-2.46,1.85,0,3.67.29,5.46.86v2.46c-1.85-.6-3.55-.89-5.08-.89-1.96,0-3.46.57-4.49,1.69-1.03,1.13-1.55,2.76-1.55,4.89s.54,3.81,1.61,4.92c1.08,1.11,2.55,1.66,4.42,1.66Z"/>
    <path class="cls-2" d="M108.91,93.05v3.8h5.53v2.36h-5.53v10.83c0,.6.19,1.08.56,1.44.37.36.93.54,1.68.54.81,0,1.69-.15,2.65-.45v2.4c-1.72.32-3.04.48-3.93.48-1.3,0-2.24-.31-2.83-.93s-.88-1.57-.88-2.84v-11.47h-2.43v-1.73l.58-.64h1.85v-2.11l1.63-1.69h1.12Z"/>
    <path class="cls-2" d="M127.47,97.27c0,.68.17,1.33.51,1.95.32.6.86,1.09,1.63,1.47.77.38,1.52.58,2.27.58h11.18v2.24h-3.58l3.13,10.61h-2.62l-.77-2.43c-2.64,1.87-5.37,2.81-8.18,2.81-2.04,0-3.78-.5-5.21-1.5-1.58-1.11-2.36-2.73-2.36-4.86-.06-1.02.31-2.13,1.12-3.32.81-1.19,1.96-2.02,3.45-2.49-1.06-.51-1.91-1.26-2.54-2.25-.63-.99-.94-2.04-.94-3.15,0-1.9.78-3.4,2.35-4.52s3.51-1.68,5.83-1.68c2.07,0,4.19.3,6.36.89v2.62c-.6-.23-1.5-.47-2.71-.7-1.21-.23-2.33-.35-3.35-.35-1.64,0-2.98.36-4.01,1.09-1.03.72-1.55,1.73-1.55,3ZM138.55,109.44l-1.72-5.94h-5.4c-1.51,0-2.75.41-3.71,1.23-.96.82-1.44,1.85-1.44,3.08s.43,2.21,1.28,3.04c.96.87,2.25,1.31,3.87,1.31,1.13,0,2.36-.24,3.69-.73,1.33-.49,2.48-1.15,3.43-1.98Z"/>
    <path class="cls-2" d="M154.88,114.11h-3l8.08-23.03h4.06l8.11,23.03h-3.04l-1.82-5.27h-10.57l-1.82,5.27ZM162.16,93.53h-.45l-4.38,12.81h9.2l-4.38-12.81Z"/>
    <path class="cls-2" d="M173.31,105.86c0-6.26,2.82-9.39,8.47-9.39,1.15,0,2.52.16,4.12.48v-7.22h2.71v24.38h-2.24l-.29-1.66c-2.17,1.34-4.25,2.01-6.23,2.01-2.09,0-3.7-.74-4.84-2.2-1.14-1.47-1.71-3.6-1.71-6.39ZM176.12,105.74c0,4.24,1.46,6.36,4.38,6.36,1.58,0,3.38-.64,5.4-1.92v-10.89c-1.49-.3-2.8-.45-3.93-.45-2,0-3.48.56-4.42,1.68-.95,1.12-1.42,2.86-1.42,5.22Z"/>
    <path class="cls-2" d="M197.34,114.14l-5.97-17.28h2.91l4.76,14.28h.16l4.73-14.28h2.88l-6.04,17.28h-3.42Z"/>
    <path class="cls-2" d="M208.04,105.48c0-2.64.71-4.8,2.14-6.48s3.55-2.52,6.36-2.52c2.47,0,4.5.74,6.1,2.22,1.6,1.48,2.4,3.74,2.4,6.79,0,2.64-.71,4.8-2.14,6.49-1.43,1.68-3.55,2.52-6.36,2.52-2.47,0-4.5-.74-6.1-2.22-1.6-1.48-2.4-3.74-2.4-6.79ZM222.22,105.48c.06-1.98-.42-3.59-1.45-4.84-1.03-1.25-2.46-1.84-4.27-1.77-1.85,0-3.26.58-4.22,1.72-.96,1.15-1.44,2.78-1.44,4.89-.06,1.98.42,3.6,1.45,4.86s2.46,1.84,4.27,1.76c1.85,0,3.26-.58,4.22-1.72.96-1.15,1.44-2.78,1.44-4.89Z"/>
    <path class="cls-2" d="M236.31,112.06c1.55,0,3.25-.29,5.08-.86v2.46c-1.85.55-3.67.83-5.46.83-1.13,0-2.17-.15-3.13-.45-.96-.3-1.85-.78-2.67-1.44-.82-.66-1.47-1.6-1.95-2.81-.48-1.21-.72-2.65-.72-4.31,0-2.85.69-5.04,2.08-6.55,1.58-1.64,3.71-2.46,6.39-2.46,1.85,0,3.67.29,5.46.86v2.46c-1.85-.6-3.55-.89-5.08-.89-1.96,0-3.46.57-4.49,1.69-1.03,1.13-1.55,2.76-1.55,4.89s.54,3.81,1.61,4.92c1.08,1.11,2.55,1.66,4.42,1.66Z"/>
    <path class="cls-2" d="M249.44,103.98h5.14v-1.85c0-2.21-1.37-3.32-4.12-3.32-.72,0-1.68.09-2.88.26-1.28.19-2.23.37-2.84.54v-2.4c.72-.17,1.77-.34,3.13-.51,1.13-.15,2.19-.22,3.19-.22,2,0,3.55.5,4.63,1.49,1.09.99,1.63,2.43,1.63,4.33v11.82h-2.33l-.22-2.17c-2.22,1.56-4.26,2.33-6.13,2.33-1.68,0-3-.46-3.95-1.37-.95-.92-1.42-2.14-1.42-3.67,0-1.66.55-2.95,1.65-3.87,1.1-.92,2.6-1.37,4.52-1.37ZM254.58,109.95v-3.93h-4.86c-1.19,0-2.1.26-2.73.78-.63.52-.94,1.26-.94,2.22s.3,1.67.91,2.2c.61.53,1.43.8,2.48.8.79,0,1.66-.2,2.62-.59.96-.39,1.8-.89,2.52-1.49Z"/>
    <path class="cls-2" d="M269.44,112.06c1.55,0,3.25-.29,5.08-.86v2.46c-1.85.55-3.67.83-5.46.83-1.13,0-2.17-.15-3.13-.45-.96-.3-1.85-.78-2.67-1.44-.82-.66-1.47-1.6-1.95-2.81-.48-1.21-.72-2.65-.72-4.31,0-2.85.69-5.04,2.08-6.55,1.58-1.64,3.71-2.46,6.39-2.46,1.85,0,3.67.29,5.46.86v2.46c-1.85-.6-3.55-.89-5.08-.89-1.96,0-3.46.57-4.49,1.69-1.03,1.13-1.55,2.76-1.55,4.89s.54,3.81,1.61,4.92c1.08,1.11,2.55,1.66,4.42,1.66Z"/>
    <path class="cls-2" d="M284.01,120.66h-2.88l2.17-6.55h-1.34l-5.69-17.25h2.97l4.57,14.34h.38l4.57-14.34h2.94l-7.7,23.8Z"/>
  </g>
</svg> 