<?xml version="1.0" encoding="UTF-8"?>
<svg id="Layer_1" data-name="Layer 1" xmlns="http://www.w3.org/2000/svg" viewBox="0 0 96.2 122.41">
  <defs>
    <style>
      .cls-1 {
        fill: #ed572b;
      }
    </style>
  </defs>
  <path class="cls-1" d="M96.2,71.67c-3.38,11.97-10.88,21.98-21.12,28.24-5.87,3.59-12.26,5.69-18.73,6.25-.2,2.96-.42,6.01-.64,9.14-.34,4.83-.22,2.31-.47,7.11l-8.91-.47c.26-4.87.14-2.4.47-7.26.64-8.91,1.26-17.01,1.41-24.83-1.73.18-3.48.27-5.21.27-7.31,0-14.51-1.65-21.05-4.9-10.87-5.4-18.65-14.56-21.96-25.81l8.57-2.5c2.59,8.83,8.74,16.04,17.35,20.32,6.81,3.4,14.52,4.63,22.21,3.64-.24-5.71-.85-11.37-2.06-17.16-3.78-18.15-12.7-30-28.1-37.26l3.82-8.07c14.81,7,24.76,17.95,30.19,33.34,4.51-12.99,6.12-26.71,4.59-39.73l8.87-1.04c2.15,18.31-1.33,37.83-9.81,55.29,1.71,10.38,1.77,20.32,1.26,30.89,4.68-.6,9.29-2.23,13.55-4.83,8.31-5.08,14.42-13.25,17.19-23.04l8.58,2.42Z"/>
  <path class="cls-1" d="M38.81,0c1.38,0,5.29,2.53,6.43,3.53,4.53,3.96,5.08,8.74,3.11,14.27-2.33,6.54-4.93,6.22-10.14,2.36-5.89-4.36-6.32-12.61-2.04-18.32C36.72,1.12,37.89,0,38.81,0Z"/>
  <path class="cls-1" d="M22.42,47.45c1.35-.28,5.7,1.39,7.02,2.13,5.25,2.94,6.77,7.51,5.98,13.32-.94,6.88-3.54,7.1-9.43,4.4-6.66-3.06-8.78-11.04-5.76-17.51.38-.81,1.29-2.15,2.2-2.34Z"/>
  <path class="cls-1" d="M21.62,108.49c-.24-1.35,1.52-5.61,2.29-6.91,3.05-5.12,7.62-6.52,13.36-5.58,6.79,1.11,6.95,3.69,4.11,9.46-3.2,6.52-11.17,8.42-17.5,5.26-.79-.4-2.1-1.34-2.26-2.24Z"/>
  <path class="cls-1" d="M74.56,64.76c.97.86,2.15,5.04,2.34,6.45.74,5.58-1.83,9.28-6.63,11.94-5.68,3.15-7.3,1.33-8.58-4.6-1.44-6.7,3.35-12.76,9.88-14.13.82-.17,2.34-.24,2.98.33Z"/>
</svg> 